<svg id="Слой_1" data-name="Слой 1" xmlns="http://www.w3.org/2000/svg" viewBox="0 0 325.03 91.5"><defs><style>.cls-1,.cls-4,.cls-5{fill:#95c361;}.cls-1,.cls-2,.cls-4{fill-rule:evenodd;}.cls-2,.cls-3{fill:#d14e43;}.cls-3,.cls-4,.cls-5{stroke:#1d1d1b;stroke-miterlimit:22.93;stroke-width:0.03px;}</style></defs><title>logo_adb</title><polygon class="cls-1" points="74.48 9.4 80.61 9.4 80.61 15.53 86.73 15.52 86.73 21.65 80.61 21.66 80.61 27.79 74.48 27.8 74.48 21.67 68.36 21.67 68.36 15.54 74.48 15.54 74.48 9.4 74.48 9.4"/><path class="cls-2" d="M80.08,20.26A18.67,18.67,0,1,1,61.41,38.94,18.67,18.67,0,0,1,80.08,20.26Zm0,2.17A16.49,16.49,0,1,1,63.59,38.94,16.5,16.5,0,0,1,80.08,22.43Zm-5.62,4.76H85.69V33.3h6.12V44.53H85.69v6.12H74.46V44.54H68.34V33.32h6.12V27.19Zm1.23,1.23h8.77v6.13h6.12v8.76H84.46v6.12H75.69V43.31H69.57V34.55h6.12V28.42Z" transform="translate(-2.26 -20.24)"/><path class="cls-3" d="M118.25,25.74l-2.09,17H120l-1.65-17Zm3.2,31.85-.92-9.16h-5l-1.16,9.16H107l6.07-37.32h11.35L130,57.59Zm13.69-37.32h21.74V57.59h-8.74V25.94h-4.27V57.59h-8.73V20.27Zm41.27,37.32h-8.68V25.94h-6.11V20.27h20.86v5.67h-6.07V57.59Zm29.75,0h-18V20.26h18v5.67H196.9v8.33H206v5.58H196.9V51.91h9.26v5.67Zm28.8,0h-8.54l-5.28-18.9v18.9H212.4V20.27h8.74v17l5.52-17H235l-5.82,16.48L235,57.59Zm15-31.85-2.09,17h3.83l-1.64-17Zm3.2,31.85-.92-9.16h-5.05l-1.16,9.16h-7.33l6.07-37.32h11.35l5.63,37.32Z" transform="translate(-2.26 -20.24)"/><path class="cls-4" d="M45.62,98.42c0,.35-.08,1.46-.22,3.35s-.23,3-.27,3c-.14.23-.7.35-1.66.35a8.84,8.84,0,0,1-1.94-.3c-1-.21-1.5-.44-1.5-.7s.3-1.49.91-3.87q-4.45.21-13.32.87l-6.4.61a15.22,15.22,0,0,1,.38,3.17c0,.81-.84,1.22-2.53,1.22s-2.52-.17-2.52-.52c0-.52.05-1.31.16-2.37s.16-1.85.16-2.37a2.13,2.13,0,0,0,0-.39,1.3,1.3,0,0,1-.28-1c0-1.25,1.14-1.87,3.43-1.87q2.79-11.45,4.72-17.49c.36-1.13.87-2.82,1.56-5.09,1.07-4,1.95-6,2.62-6a6.89,6.89,0,0,1,1.13.13A43.11,43.11,0,0,0,36,70q.75,0,1,.27c.11.66.25,1.46.43,2.39q.5,2,1.28,6.17c0,.21.25,1.14.65,2.79a11.65,11.65,0,0,1,.43,2.78q0,1.4.48,5.74a25.14,25.14,0,0,0,.83,5.29,1.1,1.1,0,0,0,1,.63c1.11,0,1.78,0,2,0a1.58,1.58,0,0,1,1.4,1,5.49,5.49,0,0,1,.11,1.35Zm-9.94-2a24.36,24.36,0,0,0-.7-4.78,23.59,23.59,0,0,1-.7-4.74,10.61,10.61,0,0,0-.43-2.35c-.5-1.92-1.27-4.45-2.31-7.61-.14.32-.59,1.66-1.34,4-.43,1.39-1.08,3.5-1.94,6.31q-.48,2-1.56,6-.27,1.31-1,3.87h.43a43.35,43.35,0,0,0,4.75-.37,46.2,46.2,0,0,1,4.76-.37Zm25.73,3c0,.41-1.16.61-3.49.61-1.11,0-1.74-.69-1.88-2.08-.11-1.14-.57-3.89-1.4-8.27a10.3,10.3,0,0,1-.21-1.54.38.38,0,0,0-.43-.42c-.11,0-.32.5-.65,1.48-.39,1.31-.71,2.41-1,3.31-.33,1.39-.65,2.77-1,4.13a10.73,10.73,0,0,1-1.4,3.74,1.83,1.83,0,0,1-1.34.74,5.76,5.76,0,0,1-2-.35c-.79-.29-1.19-.68-1.19-1.17q0-1.87,3.23-10.83.38-1.05,1-3.09c.14-.73.43-1.8.86-3.22s1.22-2,2.15-2a4.88,4.88,0,0,1,1.61.44,13.91,13.91,0,0,0,2.36.56,2,2,0,0,1,1.19.92,4.75,4.75,0,0,1,.86,2.17c.07.7.23,1.77.48,3.22S60,91,60.5,93.24a38,38,0,0,1,.91,6.13Zm19.21,2.27c-2.69,0-4.05-.64-4.05-1.92,0-.64.06-1.6.16-2.89s.17-2.27.17-2.94a.24.24,0,0,0-.27-.26,18,18,0,0,0-2.25,2.21Q72,98.26,71.86,98.39q-3.73,3.26-5,3.25a2,2,0,0,1-1-.42,2.08,2.08,0,0,0-.88-.41.79.79,0,0,1-.8-.54,3.22,3.22,0,0,1-.22-.63c0-.66,1.24-1.88,3.71-3.64a15,15,0,0,0,2.63-2.4,6.38,6.38,0,0,1-4-1.77,5,5,0,0,1-1.5-3.61,5.65,5.65,0,0,1,2.46-4.47,12,12,0,0,1,4.34-2,18.6,18.6,0,0,1,4.93-.69c0-.44.7-.66,2.08-.66a7.32,7.32,0,0,1,1.4.2,7.45,7.45,0,0,0,1.39.2A1,1,0,0,1,82.59,82V95.37c0,3.48-.18,5.43-.53,5.83a1.86,1.86,0,0,1-1.44.44ZM76.79,89.37a9.87,9.87,0,0,0-.11-1.17A10.18,10.18,0,0,1,76.57,87a5.07,5.07,0,0,0-.18-1.8q-.19-.33-.84-.33a8.17,8.17,0,0,0-3.6.74,2.68,2.68,0,0,0-1.77,2.44c0,1.36,1,2,2.9,2a9.34,9.34,0,0,0,3.71-.74Zm40.23,1a12.93,12.93,0,0,1-.64,4.17,13.14,13.14,0,0,1-2.47,4.44,6.09,6.09,0,0,1-4.68,2.48q-5.31,0-7.31-3c-1-1.45-1.45-3.74-1.45-6.87,0-.56,0-1.37.14-2.46s.13-1.91.13-2.46q0-7.44,1.29-10.66a4.8,4.8,0,0,1,2.45-2.32,64.54,64.54,0,0,1,7.6-2.9,10.51,10.51,0,0,0,2.74-1.26,1.92,1.92,0,0,1,1-.35c.5,0,.75.28.75.83a5.39,5.39,0,0,1-.1.89,4.66,4.66,0,0,0-.11.89,1.64,1.64,0,0,0,.21.79,2.91,2.91,0,0,1,.22,1.35q0,1.13-5.7,2.43a17.63,17.63,0,0,0-2.52.78,4.72,4.72,0,0,0-2.8,2.88,11.63,11.63,0,0,0-.48,3.82v.7h.11a12.13,12.13,0,0,1,2.25-2.39,5.76,5.76,0,0,1,3.44-1,3.83,3.83,0,0,1,1.67.6,7.82,7.82,0,0,1,3.54,3.79,13,13,0,0,1,.7,4.83Zm-5.91-1.87c0-2.24-.43-3.35-1.29-3.35a2.3,2.3,0,0,0-1.88.87l-1.88,2.43a13.83,13.83,0,0,0-.37,2.13,12.42,12.42,0,0,0,.18,1.77,11.14,11.14,0,0,1,.19,1.76c0,2.38.59,3.56,1.78,3.56.32,0,.69-.29,1.12-.87,1.44-2,2.15-4.77,2.15-8.3Zm24.62,6.22v1a4.24,4.24,0,0,1-.91,1.65,15.9,15.9,0,0,1-2,2.18,8.4,8.4,0,0,1-2.52,1.7,5.75,5.75,0,0,1-2,.3,10.26,10.26,0,0,1-2.31-.65c-.46-.15-1.07-.38-1.83-.7a7.84,7.84,0,0,1-4-7,20,20,0,0,1,1.13-6,15.57,15.57,0,0,1,2.84-5.57,3.64,3.64,0,0,1,2.8-1.18,12.48,12.48,0,0,1,3.17.55,8.67,8.67,0,0,1,2.74,1.11q2.31,1.78,2.31,7c0,.23,0,.59,0,1.08S135,91,135,91.24s-.68.58-2,.78c-.36.06-.91.12-1.67.18-.18,0-1.2.12-3.09.37s-2.82.77-2.82,1.59v1.56q0,1.74,1.38,1.74a5,5,0,0,0,2.5-1.09,8.09,8.09,0,0,0,2.08-1.74c.18-.23.49-.59,1-1.08s.7-.57.85-.57a3.19,3.19,0,0,1,1.67.54c.58.37.88.75.88,1.16ZM130,88.41c0-3-.46-4.52-1.39-4.52-.25,0-.71.77-1.37,2.31a10.91,10.91,0,0,0-1,2.87c0,.11.15.17.43.17a11.16,11.16,0,0,0,1.88-.33c1-.21,1.45-.38,1.45-.5Zm26.59-.78a15.4,15.4,0,0,1-1,4.35,18.94,18.94,0,0,1-4.51,7.57c-.93.87-1.63,1.3-2.13,1.3a5.33,5.33,0,0,1-.75-.08,4.26,4.26,0,0,0-.74-.09c-.46,0-.74.16-.85.48V106a19.46,19.46,0,0,1-.16,2,17,17,0,0,0-.16,2,2.79,2.79,0,0,1-.25,1.52,1,1,0,0,1-.83.31,7.08,7.08,0,0,1-2.74-.76c-1.11-.51-1.66-1-1.66-1.55a2.46,2.46,0,0,1,.16-.74,2.75,2.75,0,0,0,.16-.74,9.06,9.06,0,0,0-.16-1.32,8,8,0,0,1-.16-1.33,14.8,14.8,0,0,1,.16-1.83,17,17,0,0,0,.16-1.82,7.17,7.17,0,0,0-.16-1.18,6.13,6.13,0,0,1-.16-1.17c0-.61,0-1.52.16-2.72s.16-2.1.16-2.68a15.36,15.36,0,0,0-.16-1.76,13.16,13.16,0,0,1-.16-1.72A1.09,1.09,0,0,1,141,90a1.21,1.21,0,0,0,.16-.48c0-.11-.29-.44-.86-1s-.86-.86-.86-1a5,5,0,0,1,.86-1.61,4.25,4.25,0,0,0,.86-2V82.41c0-2.87.45-4.31,1.34-4.31a5.7,5.7,0,0,1,3.76,1.4,1.38,1.38,0,0,1,.49,1.09c0,.17,0,.26.16.26h1.23a9.57,9.57,0,0,1,6.13,1.87,6,6,0,0,1,2.36,4.91ZM150.87,87q0-2.7-1.47-2.7a4,4,0,0,0-1.8.51c-.65.33-1,.7-1,1.1V96.07c0,.35.09.55.27.61q1,0,2.58-4.35A21.07,21.07,0,0,0,150.87,87ZM175,94.68v1a4.24,4.24,0,0,1-.91,1.65,15.76,15.76,0,0,1-2,2.18,8.55,8.55,0,0,1-2.53,1.7,5.71,5.71,0,0,1-2,.3,10.26,10.26,0,0,1-2.31-.65c-.46-.15-1.07-.38-1.82-.7a7.85,7.85,0,0,1-4-7,20.37,20.37,0,0,1,1.13-6,15.41,15.41,0,0,1,2.85-5.57,3.62,3.62,0,0,1,2.79-1.18,12.41,12.41,0,0,1,3.17.55,8.56,8.56,0,0,1,2.74,1.11q2.31,1.78,2.31,7c0,.23,0,.59-.05,1.08s-.06.86-.06,1.09-.68.58-2,.78c-.36.06-.91.12-1.66.18-.18,0-1.21.12-3.09.37s-2.82.77-2.82,1.59v1.56c0,1.16.45,1.74,1.38,1.74a5,5,0,0,0,2.49-1.09,8.09,8.09,0,0,0,2.08-1.74c.18-.23.49-.59,1-1.08s.71-.57.85-.57a3.25,3.25,0,0,1,1.68.54c.58.37.87.75.87,1.16Zm-5.69-6.27c0-3-.47-4.52-1.4-4.52-.25,0-.71.77-1.37,2.31a11.12,11.12,0,0,0-1,2.87c0,.11.14.17.43.17a11.5,11.5,0,0,0,1.88-.33c1-.21,1.45-.38,1.45-.5ZM203,99.29c0,.29-.31.66-.93,1.13a2.85,2.85,0,0,1-1.47.69,3.46,3.46,0,0,1-1.5-.78,9.28,9.28,0,0,1-2.45-2.78l-1.93-3c-.25-.34-.61-.87-1.06-1.56-.22-.41-.36-.61-.43-.61-.26,0-.38.11-.38.35a11,11,0,0,0,.11,1.26,8,8,0,0,1,0,2.52,6.82,6.82,0,0,0,0,2.44,10.36,10.36,0,0,1,.1,1.21c0,.29-.39.54-1.18.74a6.25,6.25,0,0,1-1.66.26c-1,0-1.7-.16-2-.5a3.93,3.93,0,0,1-.48-2.24c0-.81-.08-1.63-.11-2.47s-.06-1.35-.06-1.53a1.16,1.16,0,0,1,.17-.43v-.39c0-.7-.13-1-.38-1q-.75,0-3.92,5.27a28.4,28.4,0,0,1-2.15,3.17,1.51,1.51,0,0,1-.81.35,7.16,7.16,0,0,1-1.72-.52c-.89-.35-1.34-.61-1.34-.79a3,3,0,0,1,.23-1.06q.24-.58,2.82-4.46,2.39-3.52,2.38-4c0-.44-.91-1.74-2.72-3.92s-2.71-3.46-2.71-3.87.3-.66.91-1.13a2.76,2.76,0,0,1,1.51-.69q1,0,4,3.13c.07,0,.65,1,1.72,2.78,1,1.54,1.61,2.31,1.94,2.31.07,0,.14-.15.21-.44s.06-1.28.06-3.3c0-.38,0-1-.09-1.72s-.08-1.34-.08-1.72c0-1,.58-1.44,1.72-1.44q3.76,0,3.76,2.7a12.81,12.81,0,0,1-.1,1.35,13.53,13.53,0,0,0-.11,1.35c0,.29,0,.69-.08,1.22s-.08.91-.08,1.17.12.52.37.52c.43,0,1.46-1.32,3.07-4a32,32,0,0,1,3-4.52,1.4,1.4,0,0,1,.8-.3,6.24,6.24,0,0,1,1.75.5c.88.33,1.31.6,1.31.8a3.75,3.75,0,0,1-.91,2.17c-.46.61-1.38,2-2.74,4.14a21.22,21.22,0,0,0-1.88,3.22,6.18,6.18,0,0,0,1.43,2.69c1.18,1.63,1.81,2.53,1.92,2.72a18.2,18.2,0,0,0,1.28,1.55,2.81,2.81,0,0,1,.9,1.52Zm17.63.08c0,.41-1.17.61-3.49.61-1.11,0-1.74-.69-1.88-2.08-.11-1.14-.58-3.89-1.4-8.27a9.45,9.45,0,0,1-.22-1.54.37.37,0,0,0-.43-.42c-.1,0-.32.5-.64,1.48-.4,1.31-.72,2.41-1,3.31-.32,1.39-.64,2.77-1,4.13a10.78,10.78,0,0,1-1.39,3.74,1.83,1.83,0,0,1-1.35.74,5.83,5.83,0,0,1-2-.35c-.79-.29-1.18-.68-1.18-1.17q0-1.87,3.22-10.83c.25-.7.6-1.73,1-3.09.15-.73.43-1.8.86-3.22s1.22-2,2.15-2a4.92,4.92,0,0,1,1.62.44,13.65,13.65,0,0,0,2.36.56,2,2,0,0,1,1.18.92,4.65,4.65,0,0,1,.86,2.17c.07.7.23,1.77.49,3.22s.82,3.19,1.28,5.48a38.44,38.44,0,0,1,.92,6.13Zm19.18-1a2.79,2.79,0,0,1-.7,1.61,2,2,0,0,1-1.56,1,5.26,5.26,0,0,1-2.09-.39,2.55,2.55,0,0,1-1.08-1.57q-.1-.3-.21-.3t-.54.48a4.36,4.36,0,0,1-3.38,1.78,7.23,7.23,0,0,1-3-.74,4.4,4.4,0,0,1-2.15-1.74,12.87,12.87,0,0,1-1.13-6c0-1.28.09-3.16.27-5.66q.33-4.52.75-5.13c.22-.29.68-.43,1.4-.43a7,7,0,0,1,2.31.39c1,.35,1.45.8,1.45,1.35,0,1.16-.11,2.88-.32,5.17s-.32,4-.32,5.18a13.08,13.08,0,0,0,.21,3.09c.15.4.27.61.38.61a2.91,2.91,0,0,0,2.63-1.07,7.47,7.47,0,0,0,.7-3.85c0-.64,0-1.6.11-2.89s.1-2.26.1-2.89,0-1.24-.1-2.22-.11-1.73-.11-2.22a1.31,1.31,0,0,1,.65-1.11,2.6,2.6,0,0,1,1.49-.46,6.09,6.09,0,0,1,2.17.44c.74.29,1.12.68,1.12,1.17a8.89,8.89,0,0,1-.11,1.09,8.89,8.89,0,0,0-.11,1.09c0,.49,0,1.24.11,2.24s.11,1.74.11,2.24c0,.84-.07,2.07-.19,3.7s-.19,2.84-.19,3.65c0,1,.22,1.65.64,1.91a3.2,3.2,0,0,1,.65.44Zm20.9-4.31a4.74,4.74,0,0,1-1.24,2.83c-1.25,1.59-3.61,2.83-7.09,3.7a17.1,17.1,0,0,1-4,.56,5.35,5.35,0,0,1-2.71-.5,2.64,2.64,0,0,1-1-2,17.43,17.43,0,0,1-.17-2.52V83c0-1.69.56-2.53,1.67-2.53a7.81,7.81,0,0,1,3.44.61,15,15,0,0,1,3.65-.61,22,22,0,0,1,3.23.18A4.27,4.27,0,0,1,260,82.89a3.9,3.9,0,0,1,.32,1.7,4.22,4.22,0,0,1-1.18,2.48A8.1,8.1,0,0,1,256.83,89q-.27.13-.81.48c0,.06.34.14,1,.26a4.17,4.17,0,0,1,1.56.52,4.25,4.25,0,0,1,2.15,3.87Zm-5-9.61c0-.06-.14-.18-.43-.35a2.29,2.29,0,0,0-1.18-.26,9.48,9.48,0,0,0-3.6.61c-.07.84-.16,2.12-.27,3.83,3.66-1.34,5.48-2.61,5.48-3.83Zm-.16,9.26c0-1.39-1.11-2.08-3.33-2.08a4.92,4.92,0,0,0-1.83.34c0,.44,0,1.08-.08,1.92s-.08,1.46-.08,1.87q0,.3.06.87c0,.38,0,.66,0,.87a8.6,8.6,0,0,0,3.39-1.26c1.21-.79,1.82-1.63,1.82-2.53Zm35.79-11.39c0,.72-.07,1.8-.19,3.24s-.19,2.51-.19,3.24c0,.49,0,1.24.08,2.24s.08,1.75.08,2.24c0,.26,0,.67-.08,1.22s-.08,1-.08,1.21c0,.44,0,1.11.08,2s.08,1.56.08,2c0,.92-.56,1.39-1.69,1.39a10.22,10.22,0,0,1-2.16-.18,2.41,2.41,0,0,1-1.79-2,15.33,15.33,0,0,1-.16-2.78V82.93c0-1.65.55-2.48,1.64-2.48q4.38,0,4.38,1.92Zm-8.44,11.48q0,3.27-4,5.26a17.33,17.33,0,0,1-7.74,1.66c-.22.46-.93.69-2.15.69a2.84,2.84,0,0,1-1.29-.21,13.7,13.7,0,0,0-1.51-.22c-.78-.12-1.18-.32-1.18-.61s0-.88.08-1.59.08-1.24.08-1.59V89.89a12,12,0,0,0-.08-1.22c-.05-.55-.08-1-.08-1.26,0-.49,0-1.23.08-2.22s.08-1.72.08-2.21c0-1.34.61-2,1.83-2,3,0,4.46.63,4.46,1.91,0,.64-.06,1.59-.19,2.87s-.19,2.23-.19,2.87V89a19.38,19.38,0,0,1,4.84-.78,7.82,7.82,0,0,1,5.05,1.52,5,5,0,0,1,1.88,4.09Zm-5.37,0c0-1.36-.84-2-2.53-2-2,0-3.35.27-4,.82,0,2.38.13,3.74.38,4.09a.93.93,0,0,0,.81.31,8.29,8.29,0,0,0,3.59-.7,2.7,2.7,0,0,0,1.78-2.48Zm34.28-12.14a7.64,7.64,0,0,1-1.61,2.79q-1.08,1.44-2.1,2.85A25.48,25.48,0,0,0,306,91.07v.08l1.61,2.74c2.3,3.63,3.44,5.66,3.44,6.09q0,1-1.23,1a1.38,1.38,0,0,1-.38-.09,1.2,1.2,0,0,0-.86,0,1.38,1.38,0,0,1-.38.09c-1.07,0-2.23-.83-3.49-2.48a16.07,16.07,0,0,0-2-2.48,49,49,0,0,0-3.65,6.18.43.43,0,0,0-.06.24q0,.15-.21.15h-1a2.51,2.51,0,0,1-1.91-1.07,3.17,3.17,0,0,1-.89-1.93,15.85,15.85,0,0,1,.65-1.48c.21-.38.5-1,.86-1.74.1-.2.7-1.16,1.77-2.87a7.92,7.92,0,0,0,1.34-2.7,6.5,6.5,0,0,0-1-2.43c-.89-1.51-1.38-2.35-1.45-2.53-.21-.52-.54-1.29-1-2.3-.36-.76-.54-1.15-.54-1.18,0-.43.41-.82,1.23-1.15a6,6,0,0,1,2.15-.5c.76,0,1.53.93,2.34,2.78s1.44,2.79,1.91,2.79c.82-1.22,1.65-2.45,2.47-3.7,1.36-2,2.26-3,2.69-3a5.48,5.48,0,0,1,2,.92c1,.61,1.51,1,1.51,1.21Z" transform="translate(-2.26 -20.24)"/><path class="cls-5" d="M2.72,85.29a9.07,9.07,0,0,1-.33-1.48,8.59,8.59,0,0,1-.11-1.34,6.82,6.82,0,0,1,.36-2.28,7.45,7.45,0,0,1,1.2-2.07,21.59,21.59,0,0,1,2.47-2.53l1.14,1.09A8.39,8.39,0,0,0,6,79.31a9.78,9.78,0,0,0-.4,3,14.37,14.37,0,0,0,.35,3Zm6.71,0a11.79,11.79,0,0,1-.33-1.48A10,10,0,0,1,9,82.47a6.82,6.82,0,0,1,.36-2.28,7.5,7.5,0,0,1,1.21-2.07A22.21,22.21,0,0,1,13,75.59l1.14,1.09a8.6,8.6,0,0,0-1.49,2.63,10.12,10.12,0,0,0-.39,3,14.3,14.3,0,0,0,.34,3Z" transform="translate(-2.26 -20.24)"/><path class="cls-5" d="M323.65,85.29a14.3,14.3,0,0,0,.34-3,10.12,10.12,0,0,0-.39-3,8.6,8.6,0,0,0-1.49-2.63l1.14-1.09a22.21,22.21,0,0,1,2.46,2.53,7.26,7.26,0,0,1,1.21,2.07,6.82,6.82,0,0,1,.36,2.28,10,10,0,0,1-.11,1.34,11.79,11.79,0,0,1-.33,1.48Zm-6.72,0a14.3,14.3,0,0,0,.34-3,10.12,10.12,0,0,0-.39-3,8.39,8.39,0,0,0-1.49-2.63l1.14-1.09A21.59,21.59,0,0,1,319,78.12a7.45,7.45,0,0,1,1.2,2.07,6.82,6.82,0,0,1,.36,2.28,8.59,8.59,0,0,1-.11,1.34,9.07,9.07,0,0,1-.33,1.48Z" transform="translate(-2.26 -20.24)"/></svg>